<svg width="120" height="25" viewBox="0 0 120 25" fill="none" xmlns="http://www.w3.org/2000/svg">
<g filter="url(#filter0_i_172_2697)">
<path d="M16.7272 21.8433C16.4521 22.4332 16.0119 22.9677 15.4067 23.447C14.8197 23.9447 14.187 24.1936 13.5083 24.1936C12.8297 24.1936 12.1603 24 11.5 23.6129C10.858 23.2442 10.3353 22.8664 9.93179 22.4793C9.52829 22.0922 8.95054 21.4931 8.19854 20.682C7.46489 19.871 6.96051 19.3272 6.68539 19.0507C5.7133 20.1014 4.53029 20.6267 3.13636 20.6267C2.21929 20.6267 1.4673 20.3963 0.880381 19.9355C0.29346 19.4747 0 18.8664 0 18.1106C0 17.3364 0.311801 16.682 0.935404 16.1475C1.57735 15.5945 2.43022 15.318 3.49401 15.318C4.09927 15.318 4.70453 15.4194 5.3098 15.6221C5.49321 14.7189 5.63994 13.4378 5.74999 11.7788C4.63117 11.576 3.71411 11.106 2.9988 10.3687C2.30183 9.6129 1.95334 8.57143 1.95334 7.24424C1.95334 6.72811 2.03588 6.07373 2.20095 5.28111C2.40271 5.24424 2.66865 5.22581 2.9988 5.22581C3.32894 5.22581 3.66825 5.35484 4.01674 5.6129C3.7783 6.0553 3.65908 6.64516 3.65908 7.38249C3.65908 8.87558 4.38356 9.79724 5.83252 10.1475C5.90589 8.13825 6.01593 6.72811 6.16266 5.91705C6.30939 5.08756 6.56617 4.30415 6.933 3.56682C7.29982 2.81106 7.90508 2.13825 8.74878 1.54839C9.61082 0.958525 10.7021 0.663594 12.0227 0.663594C13.3433 0.663594 14.3612 1.05991 15.0765 1.85253C15.8102 2.62673 16.177 3.54839 16.177 4.61751C16.177 6.1106 15.4892 7.62212 14.1136 9.15207C12.7563 10.6636 11.069 11.5853 9.05141 11.9171C8.48283 14.4055 8.07016 16.0922 7.81338 16.977C8.10684 17.1982 8.63873 17.6129 9.40907 18.2212C10.1977 18.8295 10.7938 19.2811 11.1973 19.576C11.6192 19.8525 12.1786 20.129 12.8756 20.4055C13.5909 20.7005 14.2787 20.8479 14.939 20.8479L16.0945 20.765C16.4063 21.2074 16.6172 21.5668 16.7272 21.8433ZM14.3337 4.86636C14.3337 4.31336 14.187 3.86175 13.8935 3.51152C13.6184 3.16129 13.2424 2.98617 12.7655 2.98617C11.5367 2.98617 10.6379 4.3318 10.0694 7.02304C9.75755 8.4977 9.53746 9.56682 9.40907 10.2304C10.7663 9.99078 11.9218 9.31797 12.8756 8.21198C13.8477 7.08756 14.3337 5.97235 14.3337 4.86636ZM2.88875 18.553C3.53069 18.553 4.09927 18.2028 4.59449 17.5023C4.06259 17.1705 3.53069 17.0046 2.9988 17.0046C2.21012 17.0046 1.81578 17.2627 1.81578 17.7788C1.81578 18.0369 1.92583 18.2304 2.14593 18.3594C2.36602 18.4885 2.61363 18.553 2.88875 18.553Z" fill="url(#paint0_linear_172_2697)"/>
<path d="M16.0272 18.2212C16.0272 17.4286 16.2656 16.083 16.7425 14.1843C17.2194 12.2673 17.4578 11.0968 17.4578 10.6728C17.4578 10.2304 17.1277 9.64977 16.4674 8.93088L16.4949 8.57143C17.7421 8.31336 19.3836 8.18433 21.4195 8.18433C21.5112 8.42396 21.5571 8.85714 21.5571 9.48387C21.5571 10.1106 21.3003 11.447 20.7867 13.4931C20.2732 15.5392 20.0164 16.8111 20.0164 17.3088C20.0164 17.8065 20.1998 18.0553 20.5666 18.0553C21.0985 18.0553 21.713 17.8618 22.4099 17.4747C22.4833 17.0323 22.6667 16.1843 22.9602 14.9309C23.6205 11.9816 23.9506 9.87097 23.9506 8.59908C24.5926 8.34101 25.7481 8.21198 27.4171 8.21198H27.9398C27.9398 9.07834 27.6831 10.7742 27.1695 13.2995C26.6559 15.8065 26.3992 17.2811 26.3992 17.7235C26.3992 18.1475 26.4909 18.3594 26.6743 18.3594C26.7843 18.3594 27.3071 18.1383 28.2425 17.6959L28.7652 18.5806C27.1328 19.9447 25.7022 20.6267 24.4733 20.6267C23.8864 20.6267 23.382 20.4608 22.9602 20.129C22.5567 19.7972 22.3274 19.3641 22.2724 18.8295C20.7867 20.0461 19.4387 20.6544 18.2281 20.6544C17.5862 20.6544 17.0543 20.4424 16.6324 20.0184C16.2289 19.5945 16.0272 18.9954 16.0272 18.2212Z" fill="url(#paint1_linear_172_2697)"/>
<path d="M38.2542 18.4147C38.3643 18.4147 38.7311 18.2489 39.3547 17.9171L39.6298 17.7788L40.125 18.7465C39.9783 18.894 39.7857 19.0691 39.5473 19.2719C39.3088 19.4747 38.8411 19.7512 38.1442 20.1014C37.4655 20.4516 36.8144 20.6267 36.1908 20.6267C35.5856 20.6267 35.0903 20.47 34.7052 20.1567C34.3384 19.8249 34.0357 19.2903 33.7973 18.553L33.1645 16.5899C31.7889 18.083 30.7618 19.4194 30.0832 20.5991C29.9548 20.5991 29.6338 20.5069 29.1203 20.3226C28.6251 20.1383 28.2582 19.9816 28.0198 19.8525C28.5517 18.9124 30.0832 17.2442 32.6143 14.8479C31.9723 12.9124 31.4588 11.5576 31.0736 10.7834C31.0002 10.6359 30.5601 10.1106 29.753 9.20737L29.8356 8.87558L31.5138 8.51613C32.4859 8.36866 33.3479 8.2765 34.0999 8.23963C34.4851 8.553 34.7877 9.13364 35.0078 9.98157C35.2462 10.8295 35.4297 11.4747 35.558 11.9171C36.9153 10.424 37.8049 9.17051 38.2267 8.15668C38.7403 8.23041 39.2446 8.42396 39.7399 8.73733L39.9875 8.87558C39.3455 10.0922 38.0433 11.6866 36.0808 13.659C36.2825 14.3594 36.4659 14.9401 36.631 15.4009C37.328 17.4101 37.869 18.4147 38.2542 18.4147Z" fill="url(#paint2_linear_172_2697)"/>
<path d="M72.5841 19.3825C71.3919 20.212 70.2731 20.6267 69.2277 20.6267C68.1822 20.6267 67.4394 20.3779 66.9992 19.8802C66.5773 19.3825 66.3664 18.7281 66.3664 17.9171C66.3664 17.106 66.7974 15.023 67.6595 11.6682C68.5215 8.29493 68.9525 6.20276 68.9525 5.39171C68.9525 4.37788 68.5949 3.87097 67.8796 3.87097C67.1643 3.87097 66.1922 4.40553 64.9633 5.47465C64.9266 5.62212 64.624 6.74654 64.0554 8.84793C62.8082 13.4562 62.1388 17.1705 62.0471 19.9908C61.3317 20.2673 60.0387 20.4055 58.1679 20.4055H57.8102C57.8102 19.2627 58.2963 16.6267 59.2684 12.4977C60.2404 8.36866 60.7265 5.96313 60.7265 5.28111C60.7265 4.34101 60.3505 3.87097 59.5985 3.87097C58.7915 3.87097 57.7369 4.4424 56.4346 5.58525C56.4346 9.34562 55.7743 12.8664 54.4538 16.1475C53.8302 17.6959 53.014 18.9585 52.0052 19.9355C51.0148 20.894 49.9877 21.3733 48.9239 21.3733C47.8784 21.3733 47.0531 21.0507 46.4478 20.4055C45.8609 19.7788 45.5674 18.9032 45.5674 17.7788C45.5674 16.6359 45.9709 15.2995 46.778 13.7696C47.585 12.2212 48.4378 10.9032 49.3366 9.81567C50.2536 8.70968 51.189 7.71429 52.1428 6.82949C52.1428 5.13364 51.941 4.1106 51.5375 3.76037C51.3358 3.59447 51.0423 3.51152 50.6571 3.51152C50.2903 3.51152 49.7401 3.67742 49.0064 4.00922C48.2911 4.34101 47.6033 4.79263 46.943 5.36406L46.2552 4.39631C46.8972 3.60369 47.8601 2.83871 49.144 2.10138C50.4279 1.36406 51.565 0.995392 52.5555 0.995392C53.5642 0.995392 54.3529 1.26267 54.9215 1.79723C55.5084 2.31336 55.9211 2.97696 56.1595 3.78802C58.6906 1.70507 60.6898 0.663594 62.1571 0.663594C62.8908 0.663594 63.5144 0.894008 64.0279 1.35484C64.5598 1.81567 64.8991 2.50691 65.0459 3.42857C67.2101 1.58525 69.0167 0.663594 70.4657 0.663594C71.2727 0.663594 71.9513 0.986175 72.5016 1.63134C73.0702 2.2765 73.3544 3.15207 73.3544 4.25806C73.3544 5.34562 72.9051 7.54839 72.0064 10.8664C71.1076 14.1843 70.6583 16.2857 70.6583 17.1705C70.6583 18.0369 70.9334 18.47 71.4836 18.47C71.667 18.47 71.8963 18.424 72.1714 18.3318L72.5841 19.3825ZM48.4012 18.7465C49.1348 18.7465 49.8593 17.8341 50.5746 16.0092C51.3082 14.1659 51.8035 11.8618 52.0602 9.09677C50.8864 10.3134 49.8318 11.7604 48.8964 13.4378C47.961 15.0968 47.4933 16.3963 47.4933 17.3364C47.4933 18.2765 47.7959 18.7465 48.4012 18.7465Z" fill="url(#paint3_linear_172_2697)"/>
<path d="M74.8852 15.5115C74.8852 13.2074 75.573 11.3917 76.9486 10.0645C78.3426 8.7189 79.9199 8.04608 81.6807 8.04608C82.7628 8.04608 83.6523 8.31336 84.3493 8.84793C85.0463 9.38249 85.3948 10.1014 85.3948 11.0046C85.3948 11.8894 85.1655 12.6359 84.707 13.2442C84.2668 13.8525 83.7257 14.3226 83.0838 14.6544C81.7815 15.2995 80.5894 15.7051 79.5072 15.871L78.8469 15.9539C78.9753 17.6866 79.6815 18.553 80.9653 18.553C81.4055 18.553 81.8732 18.4424 82.3685 18.2212C82.8637 18 83.2488 17.7788 83.524 17.5576L83.9366 17.2258L84.5969 18.1106C84.4502 18.3134 84.1567 18.5806 83.7165 18.9124C83.2763 19.2442 82.8637 19.5207 82.4785 19.7419C81.4147 20.3318 80.25 20.6267 78.9845 20.6267C77.7189 20.6267 76.7193 20.1751 75.9857 19.2719C75.252 18.3687 74.8852 17.1152 74.8852 15.5115ZM78.8194 14.5991C79.7548 14.4332 80.4976 14.0369 81.0479 13.4101C81.5981 12.7834 81.8732 11.9724 81.8732 10.977C81.8732 9.98157 81.5798 9.48387 80.9929 9.48387C80.2959 9.48387 79.7548 10.0829 79.3697 11.2811C79.0028 12.4608 78.8194 13.5668 78.8194 14.5991Z" fill="url(#paint4_linear_172_2697)"/>
<path d="M99.0245 18.6083C97.4655 19.9539 96.0899 20.6267 94.8978 20.6267C93.7239 20.6267 93.0453 20.0369 92.8619 18.8571C92.3116 19.4101 91.6972 19.8433 91.0186 20.1567C90.34 20.47 89.7439 20.6267 89.2303 20.6267C88.3499 20.6267 87.5979 20.2396 86.9743 19.4654C86.3507 18.6912 86.0389 17.4931 86.0389 15.871C86.0389 13.4378 86.5525 11.53 87.5796 10.1475C88.6067 8.74654 89.7622 8.04608 91.0461 8.04608C92.3483 8.04608 93.4396 8.34101 94.32 8.93088C94.8886 5.9447 95.1729 3.59447 95.1729 1.88018L95.0353 0.718895C96.4109 0.239632 97.759 0 99.0796 0C99.2263 0.313364 99.2997 0.672811 99.2997 1.07834C99.2997 2.42396 98.8962 5.16129 98.0891 9.29032C97.2821 13.4009 96.8786 16.1936 96.8786 17.6682C96.8786 18.1106 96.9795 18.3318 97.1812 18.3318C97.2913 18.3318 97.6398 18.1567 98.2267 17.8065L98.5018 17.6406L99.0245 18.6083ZM92.3942 9.67742C91.7522 9.67742 91.1928 10.3134 90.7159 11.5853C90.2574 12.8571 90.0282 14.1198 90.0282 15.3733C90.0282 16.6083 90.1107 17.4009 90.2758 17.7512C90.4592 18.1014 90.7251 18.2765 91.0736 18.2765C91.6789 18.2765 92.275 18.0277 92.8619 17.53C92.9169 16.7926 93.3296 14.341 94.0999 10.1751C93.4763 9.84332 92.9077 9.67742 92.3942 9.67742Z" fill="url(#paint5_linear_172_2697)"/>
<path d="M105.489 9.76037C105.489 10.5346 105.241 11.871 104.746 13.7696C104.251 15.6498 104.003 16.8848 104.003 17.4747C104.003 18.0461 104.085 18.3318 104.251 18.3318C104.361 18.3318 104.782 18.1567 105.516 17.8065L105.846 17.6406L106.314 18.6083C106.149 18.7558 105.929 18.9401 105.654 19.1613C105.378 19.3825 104.865 19.6866 104.113 20.0737C103.361 20.4424 102.664 20.6267 102.022 20.6267C101.38 20.6267 100.876 20.4332 100.509 20.0461C100.142 19.6406 99.9587 19.106 99.9587 18.4424C99.9587 17.7604 100.188 16.5622 100.646 14.8479C101.105 13.1152 101.334 11.9908 101.334 11.4747C101.334 10.7005 101.096 9.97235 100.619 9.29032L100.371 8.95853L100.399 8.59908C101.371 8.32258 102.948 8.18433 105.131 8.18433C105.369 8.46083 105.489 8.98618 105.489 9.76037ZM102.352 5.17051C101.985 4.80184 101.802 4.31336 101.802 3.70507C101.802 3.09677 102.05 2.56221 102.545 2.10138C103.058 1.64055 103.645 1.41014 104.306 1.41014C104.966 1.41014 105.479 1.59447 105.846 1.96313C106.213 2.3318 106.396 2.82028 106.396 3.42857C106.396 4.01843 106.13 4.54378 105.599 5.00461C105.085 5.46544 104.507 5.69585 103.865 5.69585C103.223 5.69585 102.719 5.52074 102.352 5.17051Z" fill="url(#paint6_linear_172_2697)"/>
<path d="M115.488 8.84793C115.525 8.81106 115.626 8.57143 115.791 8.12903C116.653 8.12903 117.808 8.3871 119.257 8.90323C118.799 10.4332 118.432 12.0369 118.157 13.7143C117.882 15.3733 117.744 16.5622 117.744 17.2811C117.744 17.9816 117.817 18.3318 117.964 18.3318C118.074 18.3318 118.478 18.1567 119.175 17.8065L119.505 17.6406L120 18.6083C119.835 18.7558 119.615 18.9401 119.34 19.1613C119.083 19.3825 118.588 19.6866 117.854 20.0737C117.12 20.4424 116.46 20.6267 115.873 20.6267C114.736 20.6267 114.076 20.1106 113.892 19.0783C112.719 20.1106 111.655 20.6267 110.701 20.6267C109.766 20.6267 108.968 20.2581 108.307 19.5207C107.665 18.7834 107.345 17.6221 107.345 16.0369C107.345 13.5668 107.849 11.6221 108.858 10.2028C109.866 8.76498 111.086 8.04608 112.517 8.04608C113.544 8.04608 114.534 8.31336 115.488 8.84793ZM112.352 18.2765C112.792 18.2765 113.287 18.1014 113.837 17.7512C113.966 15.1521 114.397 12.5806 115.13 10.0369C114.58 9.79724 114.112 9.67742 113.727 9.67742C113.067 9.67742 112.498 10.3318 112.022 11.6406C111.563 12.9309 111.334 14.3594 111.334 15.9263C111.334 17.4931 111.673 18.2765 112.352 18.2765Z" fill="url(#paint7_linear_172_2697)"/>
</g>
<defs>
<filter id="filter0_i_172_2697" x="0" y="0" width="120" height="25.6936" filterUnits="userSpaceOnUse" color-interpolation-filters="sRGB">
<feFlood flood-opacity="0" result="BackgroundImageFix"/>
<feBlend mode="normal" in="SourceGraphic" in2="BackgroundImageFix" result="shape"/>
<feColorMatrix in="SourceAlpha" type="matrix" values="0 0 0 0 0 0 0 0 0 0 0 0 0 0 0 0 0 0 127 0" result="hardAlpha"/>
<feOffset dy="1.5"/>
<feGaussianBlur stdDeviation="1"/>
<feComposite in2="hardAlpha" operator="arithmetic" k2="-1" k3="1"/>
<feColorMatrix type="matrix" values="0 0 0 0 0.334605 0 0 0 0 0 0 0 0 0 0.383333 0 0 0 0.85 0"/>
<feBlend mode="color-burn" in2="shape" result="effect1_innerShadow_172_2697"/>
</filter>
<linearGradient id="paint0_linear_172_2697" x1="-1.34806" y1="11.9999" x2="136.555" y2="13.0265" gradientUnits="userSpaceOnUse">
<stop stop-color="#A80DDE"/>
<stop offset="1" stop-color="#F22D82"/>
</linearGradient>
<linearGradient id="paint1_linear_172_2697" x1="-1.34806" y1="11.9999" x2="136.555" y2="13.0265" gradientUnits="userSpaceOnUse">
<stop stop-color="#A80DDE"/>
<stop offset="1" stop-color="#F22D82"/>
</linearGradient>
<linearGradient id="paint2_linear_172_2697" x1="-1.34806" y1="11.9999" x2="136.555" y2="13.0265" gradientUnits="userSpaceOnUse">
<stop stop-color="#A80DDE"/>
<stop offset="1" stop-color="#F22D82"/>
</linearGradient>
<linearGradient id="paint3_linear_172_2697" x1="-1.34806" y1="11.9999" x2="136.555" y2="13.0265" gradientUnits="userSpaceOnUse">
<stop stop-color="#A80DDE"/>
<stop offset="1" stop-color="#F22D82"/>
</linearGradient>
<linearGradient id="paint4_linear_172_2697" x1="-1.34806" y1="11.9999" x2="136.555" y2="13.0265" gradientUnits="userSpaceOnUse">
<stop stop-color="#A80DDE"/>
<stop offset="1" stop-color="#F22D82"/>
</linearGradient>
<linearGradient id="paint5_linear_172_2697" x1="-1.34806" y1="11.9999" x2="136.555" y2="13.0265" gradientUnits="userSpaceOnUse">
<stop stop-color="#A80DDE"/>
<stop offset="1" stop-color="#F22D82"/>
</linearGradient>
<linearGradient id="paint6_linear_172_2697" x1="-1.34806" y1="11.9999" x2="136.555" y2="13.0265" gradientUnits="userSpaceOnUse">
<stop stop-color="#A80DDE"/>
<stop offset="1" stop-color="#F22D82"/>
</linearGradient>
<linearGradient id="paint7_linear_172_2697" x1="-1.34806" y1="11.9999" x2="136.555" y2="13.0265" gradientUnits="userSpaceOnUse">
<stop stop-color="#A80DDE"/>
<stop offset="1" stop-color="#F22D82"/>
</linearGradient>
</defs>
</svg>
